<svg width="420" height="300" viewBox="0 0 420 300" fill="none" xmlns="http://www.w3.org/2000/svg">
<g clip-path="url(#clip0)">
<path d="M193.684 63.9997H90.0757C89.567 63.9991 89.0793 63.8077 88.7196 63.4674C88.3599 63.1272 88.1576 62.6658 88.157 62.1845V37.8701C88.1576 37.3889 88.3599 36.9275 88.7196 36.5872C89.0793 36.2469 89.567 36.0555 90.0757 36.0549H193.684C194.193 36.0555 194.681 36.2469 195.04 36.5872C195.4 36.9275 195.602 37.3889 195.603 37.8701V62.1845C195.602 62.6658 195.4 63.1272 195.04 63.4674C194.681 63.8077 194.193 63.9991 193.684 63.9997V63.9997ZM90.0757 36.781C89.7704 36.7813 89.4778 36.8962 89.262 37.1003C89.0462 37.3045 88.9248 37.5813 88.9245 37.8701V62.1845C88.9248 62.4733 89.0462 62.7501 89.262 62.9543C89.4778 63.1585 89.7704 63.2733 90.0757 63.2736H193.684C193.99 63.2733 194.282 63.1585 194.498 62.9543C194.714 62.7501 194.835 62.4733 194.836 62.1845V37.8701C194.835 37.5814 194.714 37.3045 194.498 37.1003C194.282 36.8962 193.99 36.7813 193.684 36.781L90.0757 36.781Z" fill="#3F3D56"/>
<path d="M106.174 56.4884C110.491 56.4884 113.99 53.178 113.99 49.0944C113.99 45.0107 110.491 41.7003 106.174 41.7003C101.858 41.7003 98.3586 45.0107 98.3586 49.0944C98.3586 53.178 101.858 56.4884 106.174 56.4884Z" fill="#05386B"/>
<path d="M124.225 44.1649C123.879 44.1649 123.548 44.2948 123.304 44.5259C123.059 44.757 122.922 45.0704 122.922 45.3973C122.922 45.7241 123.059 46.0375 123.304 46.2687C123.548 46.4998 123.879 46.6296 124.225 46.6296H185.634C185.979 46.6296 186.31 46.4998 186.555 46.2687C186.799 46.0375 186.936 45.7241 186.936 45.3973C186.936 45.0704 186.799 44.757 186.555 44.5259C186.31 44.2948 185.979 44.1649 185.634 44.1649H124.225Z" fill="#E6E6E6"/>
<path d="M124.225 51.559C123.879 51.559 123.548 51.6888 123.304 51.9199C123.059 52.151 122.922 52.4645 122.922 52.7913C122.922 53.1181 123.059 53.4316 123.304 53.6627C123.548 53.8938 123.879 54.0237 124.225 54.0237H150.649C150.82 54.0239 150.99 53.9923 151.148 53.9305C151.307 53.8687 151.451 53.778 151.572 53.6635C151.693 53.549 151.789 53.4131 151.855 53.2634C151.92 53.1138 151.954 52.9533 151.954 52.7913C151.954 52.6293 151.92 52.4688 151.855 52.3192C151.789 52.1695 151.693 52.0336 151.572 51.9191C151.451 51.8046 151.307 51.7139 151.148 51.6521C150.99 51.5903 150.82 51.5587 150.649 51.559H124.225Z" fill="#E6E6E6"/>
<path d="M148.704 150.669H102.655C102.147 150.669 101.659 150.478 101.299 150.137C100.94 149.797 100.737 149.336 100.737 148.854V103.484C100.737 103.003 100.94 102.541 101.299 102.201C101.659 101.861 102.147 101.669 102.655 101.669H148.704C149.212 101.669 149.7 101.861 150.06 102.201C150.419 102.541 150.622 103.003 150.622 103.484V148.854C150.622 149.336 150.419 149.797 150.06 150.137C149.7 150.478 149.212 150.669 148.704 150.669ZM102.655 102.395C102.35 102.395 102.057 102.51 101.842 102.714C101.626 102.918 101.504 103.195 101.504 103.484V148.854C101.504 149.143 101.626 149.42 101.842 149.624C102.057 149.828 102.35 149.943 102.655 149.943H148.704C149.009 149.943 149.302 149.828 149.517 149.624C149.733 149.42 149.855 149.143 149.855 148.854V103.484C149.855 103.195 149.733 102.918 149.517 102.714C149.302 102.51 149.009 102.395 148.704 102.395H102.655Z" fill="#3F3D56"/>
<path d="M112.467 111.025C112.122 111.025 111.79 111.155 111.546 111.386C111.302 111.617 111.165 111.93 111.165 112.257C111.165 112.584 111.302 112.898 111.546 113.129C111.79 113.36 112.122 113.49 112.467 113.49H138.892C139.237 113.49 139.569 113.36 139.813 113.129C140.057 112.898 140.194 112.584 140.194 112.257C140.194 111.93 140.057 111.617 139.813 111.386C139.569 111.155 139.237 111.025 138.892 111.025H112.467Z" fill="#E6E6E6"/>
<path d="M112.467 118.286C112.296 118.285 112.126 118.317 111.968 118.379C111.81 118.44 111.666 118.531 111.545 118.646C111.423 118.76 111.327 118.896 111.262 119.046C111.196 119.195 111.162 119.356 111.162 119.518C111.162 119.68 111.196 119.84 111.262 119.99C111.327 120.14 111.423 120.276 111.545 120.39C111.666 120.505 111.81 120.595 111.968 120.657C112.126 120.719 112.296 120.75 112.467 120.75H138.892C139.237 120.75 139.568 120.62 139.813 120.389C140.057 120.158 140.194 119.845 140.194 119.518C140.194 119.191 140.057 118.878 139.813 118.646C139.568 118.415 139.237 118.286 138.892 118.286H112.467Z" fill="#E6E6E6"/>
<path d="M125.68 141.313C124.058 141.313 122.473 140.858 121.124 140.006C119.776 139.154 118.725 137.942 118.104 136.525C117.484 135.107 117.321 133.548 117.638 132.043C117.954 130.538 118.735 129.156 119.882 128.071C121.028 126.986 122.489 126.248 124.08 125.948C125.67 125.649 127.319 125.803 128.817 126.39C130.316 126.977 131.596 127.971 132.497 129.247C133.398 130.522 133.879 132.022 133.879 133.556C133.876 135.613 133.012 137.584 131.475 139.039C129.938 140.493 127.853 141.311 125.68 141.313V141.313Z" fill="#05386B"/>
<path d="M224.139 0H270.187C270.696 0.000565084 271.183 0.191987 271.543 0.532275C271.903 0.872563 272.105 1.33393 272.106 1.81517V47.1856C272.105 47.6668 271.903 48.1282 271.543 48.4685C271.183 48.8088 270.696 49.0002 270.187 49.0008H224.139C223.63 49.0002 223.142 48.8088 222.783 48.4685C222.423 48.1282 222.221 47.6668 222.22 47.1856V1.81517C222.221 1.33393 222.423 0.872563 222.783 0.532275C223.142 0.191987 223.63 0.000565084 224.139 0V0ZM270.187 48.2747C270.492 48.2744 270.785 48.1595 271.001 47.9554C271.217 47.7512 271.338 47.4744 271.338 47.1856V1.81517C271.338 1.52642 271.217 1.24959 271.001 1.04541C270.785 0.841229 270.492 0.726384 270.187 0.726068H224.139C223.833 0.726384 223.541 0.841229 223.325 1.04541C223.109 1.24959 222.988 1.52642 222.987 1.81517V47.1856C222.988 47.4744 223.109 47.7512 223.325 47.9554C223.541 48.1595 223.833 48.2744 224.139 48.2747H270.187Z" fill="#3F3D56"/>
<path d="M260.375 39.6445C260.721 39.6445 261.052 39.5147 261.296 39.2835C261.541 39.0524 261.678 38.739 261.678 38.4122C261.678 38.0853 261.541 37.7719 261.296 37.5408C261.052 37.3096 260.721 37.1798 260.375 37.1798H233.951C233.605 37.1798 233.274 37.3096 233.03 37.5408C232.785 37.7719 232.648 38.0853 232.648 38.4122C232.648 38.739 232.785 39.0524 233.03 39.2835C233.274 39.5147 233.605 39.6445 233.951 39.6445H260.375Z" fill="#E6E6E6"/>
<path d="M260.375 32.3839C260.721 32.3839 261.052 32.254 261.296 32.0229C261.541 31.7918 261.678 31.4784 261.678 31.1515C261.678 30.8247 261.541 30.5112 261.296 30.2801C261.052 30.049 260.721 29.9192 260.375 29.9192H233.951C233.605 29.9192 233.274 30.049 233.03 30.2801C232.785 30.5112 232.648 30.8247 232.648 31.1515C232.648 31.4784 232.785 31.7918 233.03 32.0229C233.274 32.254 233.605 32.3839 233.951 32.3839H260.375Z" fill="#E6E6E6"/>
<path d="M247.163 9.3562C248.785 9.3562 250.37 9.81114 251.718 10.6635C253.067 11.5158 254.117 12.7273 254.738 14.1447C255.359 15.5622 255.521 17.1218 255.205 18.6265C254.888 20.1313 254.107 21.5134 252.961 22.5983C251.814 23.6831 250.353 24.4219 248.762 24.7212C247.172 25.0205 245.523 24.8669 244.025 24.2798C242.527 23.6927 241.246 22.6984 240.345 21.4228C239.444 20.1472 238.964 18.6474 238.964 17.1132C238.966 15.0567 239.831 13.085 241.368 11.6307C242.905 10.1765 244.989 9.35853 247.163 9.3562Z" fill="#05386B"/>
<path d="M88.7487 93.8644C96.8973 87.8937 106.417 83.8222 116.539 81.9795C126.74 80.1404 137.26 80.6518 147.208 83.4704C152.209 84.8791 157.014 86.8488 161.521 89.3374C166.112 91.8768 170.261 95.0029 174.253 98.3127C178.297 101.666 182.208 105.168 186.43 108.324C198.482 117.439 213.444 122.418 228.874 122.45C230.149 122.452 231.422 122.419 232.695 122.35C233.385 122.314 233.39 121.294 232.695 121.33C216.967 122.15 201.436 117.71 188.82 108.787C184.444 105.692 180.449 102.153 176.371 98.7233C172.416 95.3983 168.356 92.1639 163.87 89.4926C152.897 82.9525 140.131 79.614 127.165 79.8935C114.199 80.1731 101.607 84.0585 90.9604 91.0648C89.948 91.7307 88.9592 92.4267 87.9863 93.1431C87.4393 93.5459 88.2073 94.2631 88.7487 93.8644V93.8644Z" fill="#3F3D56"/>
<path d="M88.1762 98.7951C91.2709 98.7951 93.7797 96.4217 93.7797 93.4939C93.7797 90.5661 91.2709 88.1926 88.1762 88.1926C85.0814 88.1926 82.5726 90.5661 82.5726 93.4939C82.5726 96.4217 85.0814 98.7951 88.1762 98.7951Z" fill="#3F3D56"/>
<path d="M296.639 169.181C299.734 169.181 302.242 166.808 302.242 163.88C302.242 160.952 299.734 158.579 296.639 158.579C293.544 158.579 291.035 160.952 291.035 163.88C291.035 166.808 293.544 169.181 296.639 169.181Z" fill="#3F3D56"/>
<path d="M325.995 133.681H234.562C234.053 133.681 233.566 133.489 233.206 133.149C232.846 132.809 232.644 132.348 232.643 131.866V86.8589C232.644 86.3777 232.846 85.9163 233.206 85.576C233.566 85.2357 234.053 85.0443 234.562 85.0437H325.995C326.503 85.0443 326.991 85.2357 327.351 85.576C327.71 85.9163 327.913 86.3776 327.913 86.8589V131.866C327.913 132.348 327.71 132.809 327.351 133.149C326.991 133.49 326.503 133.681 325.995 133.681ZM234.562 85.7698C234.257 85.7701 233.964 85.885 233.748 86.0891C233.532 86.2933 233.411 86.5701 233.411 86.8589V131.866C233.411 132.155 233.532 132.432 233.748 132.636C233.964 132.84 234.257 132.955 234.562 132.955H325.995C326.3 132.955 326.592 132.84 326.808 132.636C327.024 132.432 327.145 132.155 327.146 131.866V86.8589C327.145 86.5701 327.024 86.2933 326.808 86.0891C326.592 85.885 326.3 85.7701 325.995 85.7698H234.562Z" fill="#3F3D56"/>
<path d="M249.893 108.381C254.21 108.381 257.709 105.071 257.709 100.987C257.709 96.9038 254.21 93.5934 249.893 93.5934C245.577 93.5934 242.077 96.9038 242.077 100.987C242.077 105.071 245.577 108.381 249.893 108.381Z" fill="#05386B"/>
<path d="M267.944 96.0581C267.772 96.0578 267.603 96.0895 267.444 96.1513C267.286 96.2131 267.142 96.3038 267.021 96.4183C266.9 96.5327 266.804 96.6687 266.738 96.8183C266.672 96.968 266.639 97.1284 266.639 97.2905C266.639 97.4525 266.672 97.6129 266.738 97.7626C266.804 97.9122 266.9 98.0482 267.021 98.1627C267.142 98.2771 267.286 98.3679 267.444 98.4297C267.603 98.4914 267.772 98.5231 267.944 98.5228H317.176C317.522 98.5228 317.853 98.393 318.097 98.1619C318.342 97.9308 318.479 97.6173 318.479 97.2905C318.479 96.9636 318.342 96.6502 318.097 96.4191C317.853 96.1879 317.522 96.0581 317.176 96.0581H267.944Z" fill="#E6E6E6"/>
<path d="M267.944 103.452C267.772 103.452 267.603 103.484 267.444 103.545C267.286 103.607 267.142 103.698 267.021 103.812C266.9 103.927 266.804 104.063 266.738 104.212C266.672 104.362 266.639 104.522 266.639 104.684C266.639 104.847 266.672 105.007 266.738 105.157C266.804 105.306 266.9 105.442 267.021 105.557C267.142 105.671 267.286 105.762 267.444 105.824C267.603 105.885 267.772 105.917 267.944 105.917H294.368C294.713 105.917 295.045 105.787 295.289 105.556C295.533 105.325 295.671 105.011 295.671 104.684C295.671 104.358 295.533 104.044 295.289 103.813C295.045 103.582 294.713 103.452 294.368 103.452H267.944Z" fill="#E6E6E6"/>
<path d="M243.898 115.273C242.907 115.273 242.101 115.826 242.101 116.505C242.101 117.185 242.907 117.738 243.898 117.738H316.448C317.438 117.738 318.245 117.185 318.245 116.505C318.245 115.826 317.438 115.273 316.448 115.273H243.898Z" fill="#E6E6E6"/>
<path d="M243.898 122.667C242.907 122.667 242.101 123.22 242.101 123.899C242.101 124.579 242.907 125.132 243.898 125.132H316.448C317.438 125.132 318.245 124.579 318.245 123.899C318.245 123.22 317.438 122.667 316.448 122.667H243.898Z" fill="#E6E6E6"/>
<path d="M227.212 168.815C232.37 166.698 238.129 168.544 242.991 170.495C245.495 171.5 247.973 172.573 250.564 173.366C252.744 174.032 254.976 174.532 257.24 174.863C261.784 175.521 266.404 175.548 270.956 174.942C275.53 174.339 279.988 173.112 284.192 171.301C288.372 169.509 292.235 167.119 295.647 164.216C296.081 163.845 296.507 163.465 296.924 163.077C297.42 162.617 296.658 161.896 296.161 162.356C292.876 165.386 289.104 167.905 284.987 169.819C280.885 171.727 276.511 173.057 272.003 173.765C267.48 174.487 262.868 174.562 258.321 173.989C256.053 173.699 253.813 173.238 251.623 172.611C249.106 171.837 246.638 170.93 244.229 169.894C239.322 167.901 233.869 165.948 228.477 167.323C227.859 167.485 227.254 167.689 226.668 167.934C226.033 168.195 226.581 169.074 227.212 168.815V168.815Z" fill="#3F3D56"/>
<path d="M225.219 181.326H182.022L192.188 164.668C192.37 164.37 192.632 164.122 192.947 163.949C193.263 163.777 193.621 163.686 193.985 163.686C194.35 163.686 194.708 163.777 195.023 163.949C195.339 164.122 195.601 164.37 195.783 164.668L200.126 171.784L207.51 159.685C207.738 159.311 208.066 159.001 208.461 158.785C208.856 158.569 209.305 158.455 209.761 158.455C210.217 158.455 210.665 158.569 211.06 158.785C211.456 159.001 211.784 159.311 212.012 159.685L225.219 181.326Z" fill="#05386B"/>
<path d="M225.26 181.322H179.211C178.703 181.321 178.215 181.13 177.855 180.79C177.496 180.449 177.293 179.988 177.293 179.507V155.192C177.293 154.711 177.496 154.25 177.855 153.909C178.215 153.569 178.703 153.378 179.211 153.377H225.26C225.768 153.378 226.256 153.569 226.616 153.909C226.976 154.25 227.178 154.711 227.178 155.192V179.507C227.178 179.988 226.976 180.449 226.616 180.79C226.256 181.13 225.768 181.321 225.26 181.322ZM179.211 154.103C178.906 154.104 178.614 154.218 178.398 154.423C178.182 154.627 178.061 154.904 178.06 155.192V179.507C178.061 179.796 178.182 180.072 178.398 180.277C178.614 180.481 178.906 180.596 179.211 180.596H225.26C225.565 180.596 225.858 180.481 226.073 180.277C226.289 180.072 226.411 179.796 226.411 179.507V155.192C226.411 154.904 226.289 154.627 226.073 154.423C225.858 154.218 225.565 154.104 225.26 154.103H179.211Z" fill="#3F3D56"/>
<path d="M315.578 159.923L307.37 163.866C304.44 165.273 301.613 165.033 300.53 162.098C300.273 161.4 300.177 160.657 300.251 159.92C300.325 159.184 300.567 158.471 300.959 157.831C301.351 157.191 301.884 156.639 302.523 156.212C303.161 155.785 303.89 155.494 304.658 155.358L312.459 153.981L345.87 143.494L366.108 129.917L373.527 141.1L350.142 153.038L315.578 159.923Z" fill="#FFB8B8"/>
<path d="M353.894 290.809L347.613 289.818L348.311 278.596H354.94L353.894 290.809Z" fill="#FFB8B8"/>
<path d="M414.844 279.848L408.766 281.641L404.043 271.326L409.96 268.5L414.844 279.848Z" fill="#FFB8B8"/>
<path d="M411.459 270.014L403.784 272.985L367.151 227.436L355.638 280.907L347.962 279.586C343.039 233.488 339.024 186.468 343.95 164.229L372.384 163.074L385.293 202.022L391.573 228.427L411.459 270.014Z" fill="#2F2E41"/>
<path d="M353.548 299.884C352.4 300.117 351.203 299.997 350.132 299.541L346.401 297.953C343.273 297.801 341.143 298.39 339.402 296.24C338.91 295.625 338.602 294.898 338.508 294.132C338.415 293.367 338.539 292.591 338.869 291.887V291.887C339.196 291.18 339.716 290.568 340.375 290.114C341.035 289.66 341.811 289.38 342.622 289.303L347.746 286.248L348.015 288.538C350.357 289.794 353.137 289.251 356.084 288.029L357.692 293.355C357.899 294.041 357.955 294.761 357.856 295.469C357.758 296.177 357.506 296.858 357.118 297.47C356.729 298.082 356.212 298.613 355.598 299.028C354.984 299.443 354.286 299.735 353.548 299.884Z" fill="#2F2E41"/>
<path d="M417.33 288.961C416.324 289.534 415.151 289.788 413.982 289.686L409.908 289.33C406.897 290.147 405.085 291.359 402.7 289.86C402.024 289.43 401.483 288.836 401.131 288.141C400.78 287.446 400.632 286.674 400.702 285.906C400.768 285.137 401.05 284.399 401.518 283.767C401.986 283.134 402.624 282.632 403.365 282.31L407.163 277.846L408.203 279.93C410.849 280.397 413.292 279.03 415.66 276.97L419.008 281.512C419.44 282.098 419.74 282.761 419.89 283.461C420.04 284.161 420.035 284.883 419.878 285.581C419.721 286.28 419.414 286.94 418.975 287.521C418.537 288.103 417.977 288.593 417.33 288.961V288.961Z" fill="#2F2E41"/>
<path d="M361.918 116.205C368.854 116.205 374.478 110.885 374.478 104.323C374.478 97.7604 368.854 92.4406 361.918 92.4406C354.981 92.4406 349.358 97.7604 349.358 104.323C349.358 110.885 354.981 116.205 361.918 116.205Z" fill="#FFB8B8"/>
<path d="M377.269 129.408L360.871 126.107L358.778 113.235L370.291 110.924L377.269 129.408Z" fill="#FFB8B8"/>
<path d="M372.733 164.724H343.427L350.033 149.034C349.553 143.636 351.971 139.665 355.433 136.208L359.824 125.777C366.92 121.359 372.27 121.689 377.966 127.427C384.721 136.474 380.045 150.074 372.733 164.724Z" fill="#05386B"/>
<path d="M359.476 198.061L358.642 206.734C358.345 209.83 356.626 211.967 353.423 211.275C352.661 211.11 351.945 210.791 351.325 210.34C350.705 209.89 350.196 209.318 349.831 208.663C349.467 208.009 349.256 207.288 349.213 206.549C349.171 205.811 349.297 205.072 349.584 204.384L352.498 197.401L360.871 165.054L359.476 141.62H373.431L371.687 166.705L359.476 198.061Z" fill="#FFB8B8"/>
<path d="M374.478 142.28H358.429L359.554 132.376C359.628 130.663 360.376 129.038 361.652 127.82C362.927 126.602 364.638 125.879 366.448 125.794V125.794C367.407 125.748 368.366 125.883 369.27 126.191C370.173 126.499 371.003 126.973 371.712 127.586C372.421 128.199 372.994 128.939 373.398 129.763C373.802 130.587 374.03 131.479 374.067 132.387L374.478 142.28Z" fill="#05386B"/>
<path d="M377.462 92.1052C380.07 92.1052 382.183 90.1056 382.183 87.639C382.183 85.1723 380.07 83.1727 377.462 83.1727C374.855 83.1727 372.741 85.1723 372.741 87.639C372.741 90.1056 374.855 92.1052 377.462 92.1052Z" fill="#2F2E41"/>
<path d="M372.598 86.5457C372.675 85.4125 373.207 84.3499 374.083 83.5744C374.96 82.7988 376.116 82.3686 377.317 82.3713C377.219 82.3596 377.122 82.3454 377.023 82.3394C375.774 82.2641 374.544 82.6611 373.605 83.4432C372.665 84.2253 372.092 85.3284 372.012 86.51C371.931 87.6916 372.35 88.8551 373.176 89.7445C374.003 90.634 375.168 91.1767 376.417 91.2534C376.517 91.2595 376.614 91.2571 376.713 91.2573C375.522 91.1146 374.433 90.5478 373.669 89.6724C372.904 88.797 372.521 87.6789 372.598 86.5457V86.5457Z" fill="#2F2E41"/>
<path d="M372.571 88.4528C368.361 85.1486 356.285 89.3481 355.505 91.5697C349.812 92.3037 345.501 95.4463 345.501 101.034V101.034C348.886 102.346 352.736 102.184 356.897 101.034C363.531 106.149 363.986 112.578 359.952 119.963L364.915 120.057L371.067 111.55L371.362 120.179L382.739 119.963V107.598C382.776 103.486 381.775 99.4257 379.821 95.7533C378.048 92.4946 375.297 90.5919 372.571 88.4528Z" fill="#2F2E41"/>
<path d="M361.977 110.3C363.223 110.3 364.234 108.961 364.234 107.31C364.234 105.659 363.223 104.32 361.977 104.32C360.73 104.32 359.719 105.659 359.719 107.31C359.719 108.961 360.73 110.3 361.977 110.3Z" fill="#FFB8B8"/>
<path d="M77.9248 111.104C77.9248 111.104 79.2837 88.8513 86.3387 93.9078C93.3937 98.9642 83.2577 113.168 83.2577 113.168L77.9248 111.104Z" fill="#FFB9B9"/>
<path d="M51.6773 177.111C51.6773 177.111 67.3488 193.756 58.5808 194.9C49.8129 196.044 46.3639 179.22 46.3639 179.22L51.6773 177.111Z" fill="#FFB9B9"/>
<path d="M31.2273 98.3259C33.1943 98.8156 34.9644 99.8442 36.3155 101.282C37.6666 102.721 38.5383 104.505 38.8213 106.41L43.8062 139.977L50.7945 166.753C50.7945 166.753 54.2886 169.728 52.8909 171.38C51.4933 173.033 54.638 179.975 54.638 179.975L45.9027 182.62C45.9027 182.62 44.8544 175.678 43.1074 175.347C41.572 175.057 24.3846 131.62 20.2418 121.097C19.6705 119.646 19.3473 118.821 19.3473 118.821C19.3473 118.821 20.0461 96.6731 31.2273 98.3259Z" fill="#575A89"/>
<path d="M32.8228 273.373L38.1883 282.368C42.3433 290.761 38.651 292.285 28.4634 288.125L26.1411 277.504L32.8228 273.373Z" fill="#FFB9B9"/>
<path d="M35.53 285.329C35.53 285.329 38.077 281.405 38.9983 282.062C39.9195 282.719 43.7193 285.564 43.7193 285.564L48.6687 290.049C48.6687 290.049 65.3906 291.722 54.7652 297.265C44.1397 302.807 38.2677 298.212 38.2677 298.212C38.2677 298.212 23.3857 298.944 23.6258 295.016C23.8659 291.088 28.6654 284.873 28.6654 284.873C28.6654 284.873 34.7145 288.71 35.53 285.329Z" fill="#2F2E41"/>
<path d="M9.01355 171.694L14.0437 229.275C14.0437 229.275 14.2114 263.697 19.5768 270.359C24.9423 277.022 25.11 280.353 25.11 280.353L36.1763 274.959C36.1763 274.959 30.4755 265.973 31.6492 264.597C32.3726 263.724 32.8875 262.714 33.1582 261.635L30.1401 226.103L35.8409 164.239L9.01355 171.694Z" fill="#2F2E41"/>
<path d="M22.7624 273.373L18.0677 285.111L7.42053 280.9L13.0376 272.104L22.7624 273.373Z" fill="#FFB9B9"/>
<path d="M14.9303 281.158C14.9303 281.158 18.9235 278.797 19.4226 279.741C19.9218 280.686 21.9184 284.7 21.9184 284.7L24.1646 290.602C24.1646 290.602 37.8913 298.866 26.1612 299.339C14.4311 299.811 11.4362 293.436 11.4362 293.436C11.4362 293.436 -1.79137 288.005 0.205256 284.7C2.20188 281.394 9.19001 277.966 9.19001 277.966C9.19001 277.966 12.6841 283.755 14.9303 281.158Z" fill="#2F2E41"/>
<path d="M51.602 171.853L54.2848 224.834C54.2848 224.834 29.8048 272.739 27.122 274.008C26.3226 274.398 25.614 274.936 25.0381 275.59C24.4621 276.244 24.0305 277 23.7686 277.815L9.01355 274.325L15.7204 264.173L30.4755 230.227C30.4755 230.227 32.8229 229.275 33.4936 226.103C34.1643 222.93 35.5056 222.93 32.1522 222.296C28.7988 221.661 28.7988 218.489 28.7988 218.489L17.7325 170.266L51.602 171.853Z" fill="#2F2E41"/>
<path d="M52.7701 78.0752C53.9568 71.1572 48.9908 64.639 41.6783 63.5163C34.3657 62.3937 27.4758 67.0918 26.2891 74.0098C25.1025 80.9278 30.0685 87.4461 37.381 88.5687C44.6935 89.6914 51.5835 84.9933 52.7701 78.0752Z" fill="#FFB9B9"/>
<path d="M27.6251 76.8357C27.6251 76.8357 26.6191 93.0155 25.2777 94.6018C23.9364 96.1881 39.3621 95.8708 39.3621 95.8708C39.3621 95.8708 38.3561 82.229 39.3621 80.96C40.3681 79.691 27.6251 76.8357 27.6251 76.8357Z" fill="#FFB9B9"/>
<path d="M52.6068 175.343C52.6068 175.343 14.713 172.171 7.67261 175.343C7.67261 175.343 10.2644 166.247 9.59469 165.296C9.10765 164.601 10.4514 138.691 10.0296 123.745C9.79038 115.311 7.73349 107.075 13.7128 100.813C15.748 98.6862 18.018 96.9007 20.414 96.0286C20.414 96.0286 19.7444 90.0015 23.0971 89.6847C23.0971 89.6847 35.8429 88.4135 40.5351 92.2231C42.0353 93.4326 42.979 97.1188 43.079 100.295C40.7568 111.098 41.5787 123.086 43.7096 135.523C43.84 136.313 43.9835 137.107 44.127 137.901C46.3883 150.235 49.8063 162.951 52.6068 175.343Z" fill="#575A89"/>
<path d="M32.5223 79.7818C33.6567 79.7178 34.7643 80.0805 35.8908 80.222C39.9213 80.7282 44.1141 77.9613 45.004 74.2081C45.0753 73.7083 45.2328 73.223 45.4701 72.7714C46.0904 71.8133 47.5031 71.6306 48.6677 71.8509C49.8322 72.0712 50.9361 72.5869 52.1221 72.6457C53.9533 72.7366 55.7113 71.6701 56.6872 70.2014C57.6095 68.6862 58.0016 66.934 57.8077 65.1952L56.9298 66.0668C56.5731 65.3529 56.4354 64.5586 56.5323 63.7742C56.0671 63.657 55.5779 63.6548 55.1115 63.7677C54.6452 63.8806 54.2172 64.1048 53.8687 64.419C53.0947 64.497 53.6789 63.0607 53.1038 62.5644C52.8241 62.4018 52.4908 62.3428 52.1679 62.3987C50.5211 62.4137 49.189 61.2222 47.8914 60.2629C45.643 58.6046 43.0138 57.47 40.2162 56.9508C38.3567 56.6077 36.3794 56.5526 34.6159 57.2076C33.1924 57.8122 31.9076 58.6744 30.834 59.7457C28.0731 62.2572 25.6284 65.2082 24.4798 68.6649C23.546 71.4963 23.5196 74.5259 24.4038 77.3714C24.8666 78.8492 26.2614 83.9103 28.3033 84.0281C30.8691 84.1762 29.3286 79.9621 32.5223 79.7818Z" fill="#2F2E41"/>
<path d="M38.0745 99.8834L42.8802 100.37C42.8802 100.37 47.5977 109.029 47.2551 110.835C46.9125 112.641 46.1664 111.545 48.2897 114.434C50.413 117.324 56.4379 124.792 57.184 125.889C57.9301 126.985 78.2699 112.304 77.0053 107.905C77.0053 107.905 83.4292 112.265 86.1813 112.845C86.1813 112.845 65.2196 138.853 62.2985 142.181C59.3774 145.51 57.0265 144.826 53.0121 142.853C48.9978 140.879 28.6892 121.195 28.6892 121.195L38.0745 99.8834Z" fill="#575A89"/>
<path opacity="0.1" d="M44.127 137.901L27.424 122.099L31.6508 120.795L43.7095 135.523C43.84 136.313 43.9835 137.107 44.127 137.901Z" fill="black"/>
</g>
<defs>
<clipPath id="clip0">
<rect width="420" height="300" fill="white"/>
</clipPath>
</defs>
</svg>
