<svg width="432" height="335" viewBox="0 0 432 335" fill="none" xmlns="http://www.w3.org/2000/svg">
<g clip-path="url(#clip0)">
<path d="M213.88 269.939C186.509 269.939 159.985 260.423 138.827 243.013C117.668 225.603 103.185 201.376 97.8457 174.46C92.5058 147.544 96.6395 119.605 109.542 95.4018C122.445 71.199 143.319 52.2306 168.606 41.7285C193.894 31.2264 222.031 29.8405 248.224 37.8069C274.417 45.7733 297.044 62.5991 312.251 85.4174C327.457 108.236 334.302 135.635 331.619 162.946C328.937 190.257 316.892 215.791 297.537 235.196C286.577 246.245 273.54 255.005 259.18 260.969C244.82 266.933 229.423 269.981 213.88 269.939V269.939ZM213.88 33.4712C149.07 33.4712 96.3426 86.3373 96.3426 151.319C96.3426 216.3 149.07 269.166 213.88 269.166C278.691 269.166 331.418 216.3 331.418 151.319C331.418 86.3373 278.691 33.4712 213.88 33.4712Z" fill="#3F3D56"/>
<path d="M223.846 256.84C221.655 264.961 214.151 269.989 214.151 269.989C214.151 269.989 210.199 261.853 212.39 253.733C214.58 245.613 222.085 240.584 222.085 240.584C222.085 240.584 226.037 248.72 223.846 256.84Z" fill="#05386B"/>
<path d="M203.915 256.84C206.106 264.961 213.61 269.989 213.61 269.989C213.61 269.989 217.562 261.853 215.371 253.733C213.181 245.613 205.676 240.584 205.676 240.584C205.676 240.584 201.724 248.72 203.915 256.84Z" fill="#05386B"/>
<path d="M207.134 255.095C213.146 260.963 213.88 269.983 213.88 269.983C213.88 269.983 204.868 269.49 198.856 263.622C192.844 257.754 192.11 248.734 192.11 248.734C192.11 248.734 201.123 249.228 207.134 255.095Z" fill="#3F3D56"/>
<path d="M220.626 255.095C214.615 260.963 213.88 269.983 213.88 269.983C213.88 269.983 222.893 269.49 228.905 263.622C234.917 257.754 235.651 248.734 235.651 248.734C235.651 248.734 226.638 249.228 220.626 255.095Z" fill="#3F3D56"/>
<path d="M203.915 46.2443C206.106 38.1243 213.61 33.0953 213.61 33.0953C213.61 33.0953 217.562 41.2316 215.371 49.3516C213.181 57.4717 205.676 62.5006 205.676 62.5006C205.676 62.5006 201.724 54.3644 203.915 46.2443Z" fill="#05386B"/>
<path d="M223.846 46.2443C221.655 38.1243 214.151 33.0953 214.151 33.0953C214.151 33.0953 210.199 41.2316 212.39 49.3516C214.58 57.4717 222.085 62.5006 222.085 62.5006C222.085 62.5006 226.037 54.3644 223.846 46.2443Z" fill="#05386B"/>
<path d="M220.626 47.9894C214.615 42.1218 213.88 33.1019 213.88 33.1019C213.88 33.1019 222.893 33.5953 228.905 39.4629C234.917 45.3305 235.651 54.3504 235.651 54.3504C235.651 54.3504 226.638 53.857 220.626 47.9894Z" fill="#3F3D56"/>
<path d="M207.134 47.9894C213.146 42.1218 213.88 33.1019 213.88 33.1019C213.88 33.1019 204.868 33.5953 198.856 39.4629C192.844 45.3305 192.11 54.3504 192.11 54.3504C192.11 54.3504 201.123 53.857 207.134 47.9894Z" fill="#3F3D56"/>
<path d="M158.805 4.89807H5.63718V161.062H158.805V4.89807Z" fill="#05386B"/>
<path d="M153.017 8.86169H16.5721H8.83847V17.1697V155.081H16.5721V17.1697H153.017V8.86169Z" fill="#3F3D56"/>
<path opacity="0.3" d="M153.017 8.86169H16.5721H8.83847V17.1697V155.081H16.5721V17.1697H153.017V8.86169Z" fill="black"/>
<path opacity="0.1" d="M130.921 17.1698H124.844H16.5721V37.1088H124.844V155.081H153.017V17.1698H130.921Z" fill="black"/>
<path d="M0 0V163.943H161.855V0H0ZM153.017 155.082H8.83852V8.86181H153.017V155.082Z" fill="#3F3D56"/>
<path d="M113.588 169.988C113.588 169.988 120.907 184.205 125.024 187.416C129.14 190.626 118.391 194.524 118.391 194.524L105.812 174.803L113.588 169.988Z" fill="#A0616A"/>
<path d="M69.2172 135.361C69.2172 135.361 103.296 144.304 106.269 150.266C109.242 156.229 118.391 170.676 118.391 170.676L104.897 181.453L91.6312 161.503L55.0369 144.992L69.2172 135.361Z" fill="#2F2E41"/>
<path d="M117.247 188.791C117.247 188.791 114.045 186.04 113.13 187.874C112.216 189.709 109.471 199.111 109.471 199.111C109.471 199.111 113.359 202.78 121.364 200.487C121.364 200.487 123.423 198.881 126.625 200.487C129.827 202.092 141.72 198.881 141.262 193.607C140.805 188.333 128.683 188.792 128.683 188.792C128.683 188.792 123.577 183.056 122.928 185.236C122.279 187.416 123.194 187.645 123.194 187.645C123.194 187.645 119.077 192.002 117.247 188.791Z" fill="#2F2E41"/>
<path d="M78.137 183.976L75.8499 203.239H87.0569C87.0569 203.239 86.1421 188.333 86.3708 186.498C86.5995 184.664 78.137 183.976 78.137 183.976Z" fill="#A0616A"/>
<path d="M84.5411 141.552C84.5411 141.552 90.7164 150.725 87.0569 151.413C83.3975 152.101 80.4242 141.552 80.4242 141.552H84.5411Z" fill="#A0616A"/>
<path d="M37.8833 140.635C37.8833 140.635 33.309 154.165 51.3774 157.834C69.4459 161.503 74.935 164.484 74.935 164.484L77.2222 187.874L93.0035 188.792C93.0035 188.792 100.551 153.247 90.7164 148.661C80.8816 144.075 60.0686 138.8 60.0686 138.8L37.8833 140.635Z" fill="#2F2E41"/>
<path d="M77.2222 200.257C77.2222 200.257 80.4242 198.652 80.8816 198.652C80.8816 198.652 82.892 194.003 86.5755 194.493L94.6045 206.22C94.6045 206.22 106.726 214.934 98.2639 217.227C89.8015 219.52 83.1688 217.685 83.1688 217.685L79.7381 215.163C79.7381 215.163 80.1955 212.64 77.2222 213.099C77.2222 213.099 71.0469 210.577 71.2756 208.742C71.5043 206.908 76.3624 198.922 76.3624 198.922L77.2222 200.257Z" fill="#2F2E41"/>
<path d="M79.1663 96.0328C84.2189 96.0328 88.3149 91.926 88.3149 86.8601C88.3149 81.7941 84.2189 77.6874 79.1663 77.6874C74.1136 77.6874 70.0177 81.7941 70.0177 86.8601C70.0177 91.926 74.1136 96.0328 79.1663 96.0328Z" fill="#A0616A"/>
<path d="M71.733 83.9937C71.733 83.9937 63.4993 89.9559 61.8983 90.1852C60.2973 90.4145 69.4459 101.651 69.4459 101.651C69.4459 101.651 73.7915 94.5422 76.536 93.625C79.2806 92.7077 71.733 83.9937 71.733 83.9937Z" fill="#A0616A"/>
<path d="M65.5577 91.5611C65.5577 91.5611 62.127 86.9747 60.0686 86.9747C58.0102 86.9747 39.4843 89.0386 37.8833 104.403C36.2823 119.767 37.1971 146.597 37.1971 146.597C37.1971 146.597 35.8248 139.947 51.1487 142.699C51.1487 142.699 69.4459 138.8 72.6479 138.8C75.8499 138.8 77.2222 106.008 77.2222 106.008L72.0146 97.9128C72.0146 97.9128 69.6746 102.339 65.5577 91.5611Z" fill="#D0CDE1"/>
<path d="M73.7915 104.174L77.2222 106.008L81.339 131.233L87.0569 144.304C87.0569 144.304 80.8816 142.173 80.4242 144.729L71.2756 131.462L73.7915 104.174Z" fill="#D0CDE1"/>
<path d="M77.1094 79.3375L82.0865 79.9609C81.9914 80.9763 82.0179 82.2343 82.9153 82.7147C83.3371 82.9405 83.8724 82.929 84.2464 83.2279C85.1457 83.9468 84.266 85.4929 84.7737 86.5276L86.2294 86.9138C86.4042 87.2418 86.6421 87.532 86.9292 87.7675C87.2164 88.0031 87.5472 88.1793 87.9025 88.2862C88.2579 88.393 88.6308 88.4284 88.9998 88.3902C89.3689 88.352 89.7267 88.241 90.0528 88.0635C91.0309 87.4747 91.5294 86.3495 91.9695 85.2941C92.4953 84.0332 93.0319 82.6785 92.7687 81.3375C92.4859 79.8969 91.312 78.6996 91.2587 77.2322C91.2349 76.5758 91.3731 75.7574 90.8212 75.4035C90.5673 75.2838 90.2939 75.2111 90.0142 75.1887C88.7427 74.9225 88.0347 73.6031 87.0864 72.713C85.0993 70.8477 82.0477 70.8966 79.3304 71.0593C78.5525 71.0621 77.7808 71.197 77.0479 71.4582C76.2194 71.8748 75.4869 72.4605 74.8974 73.1775C73.4402 74.7359 72.0214 76.3681 71.0601 78.2745C70.0988 80.1808 69.6252 82.4082 70.1477 84.4791C70.0962 84.2798 71.8258 82.9759 72.041 82.7669C72.717 82.1106 72.7785 81.7972 73.1443 81.0421C73.997 79.2817 75.1827 79.0962 77.1094 79.3375Z" fill="#2F2E41"/>
<path opacity="0.1" d="M62.47 108.874L63.1564 124.927L73.3298 136.889L64.0713 123.551L62.47 108.874Z" fill="black"/>
<path opacity="0.1" d="M44.173 113.232L52.178 131.806L62.4701 140.291L51.4916 132.724L44.173 113.232Z" fill="black"/>
<path d="M87.6554 128.287L92.4923 131.623C92.7332 131.813 92.9014 132.081 92.9687 132.381C93.036 132.681 92.9982 132.995 92.8618 133.271L92.2149 134.609L92.3647 134.712L91.6296 136.233L91.4798 136.13L86.152 147.154C86.0967 147.299 86.0096 147.429 85.8971 147.536C85.7846 147.642 85.6497 147.722 85.5023 147.769C85.3549 147.816 85.1988 147.83 85.0455 147.808C84.8923 147.787 84.7458 147.731 84.617 147.645L80.0715 144.51C79.7945 144.291 79.6011 143.983 79.5237 143.638C79.4463 143.293 79.4897 142.932 79.6466 142.616L86.3734 128.697C86.4196 128.576 86.4924 128.467 86.5863 128.378C86.6802 128.289 86.7929 128.223 86.916 128.183C87.0391 128.144 87.1695 128.133 87.2975 128.151C87.4255 128.169 87.5478 128.215 87.6554 128.287Z" fill="#3F3D56"/>
<path d="M80.1478 142.494L85.3537 146.084L92.1451 132.033L86.9387 128.442L80.1478 142.494Z" fill="white"/>
<path d="M77.8873 139.401C77.8873 139.401 86.9596 145.704 83.798 147.676C80.6364 149.647 74.0506 140.897 74.0506 140.897L77.8873 139.401Z" fill="#A0616A"/>
<path d="M50.92 92.7078C50.92 92.7078 39.0268 96.1475 42.4576 106.696C43.2851 109.241 44.2857 111.972 45.3277 114.652C48.6053 123.082 52.2923 131.004 52.2923 131.004L62.63 140.375L76.5361 144.304L78.1371 142.928C78.1371 142.928 78.5945 138.571 76.5361 138.113C74.4776 137.654 71.2756 135.819 71.2756 135.819L63.0419 123.666C63.0419 123.666 62.8132 93.3957 50.92 92.7078Z" fill="#D0CDE1"/>
<path d="M276.976 273.333H426.497V120.887L276.976 120.887V273.333Z" fill="#05386B"/>
<path d="M282.626 124.756H415.822H423.372V132.867V267.495H415.822V132.867H282.626V124.756Z" fill="#3F3D56"/>
<path opacity="0.3" d="M282.626 124.756H415.822H423.372V132.867V267.495H415.822V132.867H282.626V124.756Z" fill="black"/>
<path opacity="0.1" d="M304.197 132.867H310.128H415.822V152.331H310.128V267.495H282.626V132.867H304.197Z" fill="black"/>
<path d="M273.998 116.106V276.146H432V116.106H273.998ZM282.626 124.756H423.372V267.495H282.626V124.756Z" fill="#3F3D56"/>
<path d="M366.323 191.558C362.921 185.794 356.19 185.525 356.19 185.525C356.19 185.525 349.63 184.684 345.423 193.463C341.501 201.645 336.088 209.546 344.551 211.461L346.08 206.691L347.027 211.816C348.232 211.903 349.44 211.924 350.648 211.878C359.711 211.585 368.343 211.964 368.065 208.703C367.696 204.368 369.597 197.104 366.323 191.558Z" fill="#2F2E41"/>
<path d="M341.8 238.079L341.084 250.997L362.08 253.15L362.796 239.754L355.638 235.208L341.8 238.079Z" fill="#A0616A"/>
<path d="M398.228 266.427C397.598 260.325 372.601 257.554 366.593 256.976L364.347 255.662L363.631 248.007C363.631 248.007 341.442 246.093 339.772 245.854C338.101 245.615 336.67 248.725 336.67 249.442C336.67 249.961 336.358 253.665 335.104 255.86C332.397 258.041 324.144 264.904 324.144 267.504C324.144 270.614 330.705 309.727 330.705 309.727L331.421 317.861L338.101 319.057L337.624 293.699C337.624 293.699 340.01 279.106 336.67 275.039V273.365C336.67 273.365 346.467 270.806 349.92 268.019C350.921 267.803 353.732 267.272 355.285 267.734C355.498 267.86 355.744 267.989 356.017 268.12C356.052 268.152 356.085 268.186 356.116 268.221L356.142 268.18C360.609 270.276 372.068 272.92 376.754 272.169C380.369 271.615 384.064 272.289 387.252 274.083C384.628 277.432 386.537 287.001 386.537 287.001L386.775 307.574L390.116 311.641H394.649V300.397C394.649 300.397 398.944 273.365 398.228 266.427Z" fill="#2F2E41"/>
<path d="M354.087 207.339C358.436 207.339 361.961 203.804 361.961 199.444C361.961 195.084 358.436 191.55 354.087 191.55C349.739 191.55 346.214 195.084 346.214 199.444C346.214 203.804 349.739 207.339 354.087 207.339Z" fill="#A0616A"/>
<path d="M349.316 204.468C349.316 204.468 350.508 209.731 348.838 210.209C347.517 210.648 346.239 211.209 345.021 211.884L343.112 218.104V224.324L366.256 226.955L366.972 224.802V221.692L364.347 216.908L363.154 215.711C363.154 215.711 357.905 209.97 359.098 204.468H349.316Z" fill="#A0616A"/>
<path d="M369.954 223.486C369.954 223.486 370.67 231.859 369.954 235.687C369.238 239.514 369.477 245.256 369.477 245.256L364.228 244.299V231.381L365.421 224.443L369.954 223.486Z" fill="#A0616A"/>
<path d="M357.013 190.434C359.701 190.434 361.88 188.249 361.88 185.554C361.88 182.859 359.701 180.674 357.013 180.674C354.325 180.674 352.146 182.859 352.146 185.554C352.146 188.249 354.325 190.434 357.013 190.434Z" fill="#2F2E41"/>
<path d="M351.634 184.27C351.634 183.065 352.079 181.902 352.883 181.006C353.687 180.111 354.793 179.545 355.989 179.418C355.818 179.4 355.648 179.39 355.476 179.39C354.186 179.39 352.948 179.904 352.035 180.82C351.122 181.735 350.609 182.976 350.609 184.27C350.609 185.564 351.122 186.806 352.035 187.721C352.948 188.636 354.186 189.15 355.476 189.15C355.648 189.15 355.818 189.141 355.989 189.123C354.793 188.996 353.687 188.43 352.883 187.534C352.079 186.638 351.634 185.475 351.634 184.27V184.27Z" fill="#2F2E41"/>
<path d="M364.819 191.002L358.169 187.51L348.985 188.938L347.085 197.352L351.815 197.17L353.136 194.079V197.119L355.319 197.035L356.585 192.113L357.377 197.352L365.136 197.194L364.819 191.002Z" fill="#2F2E41"/>
<path d="M337.73 309.827C337.73 309.827 341.116 311.425 342.112 312.024C343.108 312.623 347.091 311.425 346.294 315.019C345.497 318.613 342.112 322.008 342.112 322.008C342.112 322.008 340.518 323.805 340.518 325.003C340.518 326.201 336.535 335.387 331.755 334.987C326.976 334.588 327.772 329.796 327.772 329.796L328.768 324.604C328.768 324.604 330.76 315.818 331.158 316.017C331.556 316.217 332.552 317.615 332.552 317.615C332.552 317.615 337.531 315.618 337.73 309.827Z" fill="#D0CDE1"/>
<path d="M387.385 303.847C387.385 303.847 383.999 305.444 383.004 306.043C382.008 306.642 378.025 305.444 378.821 309.038C379.618 312.633 383.004 316.027 383.004 316.027C383.004 316.027 384.597 317.824 384.597 319.023C384.597 320.221 388.58 329.406 393.36 329.007C398.14 328.607 397.343 323.815 397.343 323.815L396.347 318.623C396.347 318.623 394.356 309.837 393.957 310.037C393.559 310.236 392.563 311.634 392.563 311.634C392.563 311.634 387.584 309.637 387.385 303.847Z" fill="#D0CDE1"/>
<path d="M361.134 246.929V245.031H360.714V244.187C360.714 243.993 360.676 243.801 360.602 243.622C360.527 243.442 360.419 243.28 360.282 243.143C360.145 243.005 359.983 242.897 359.804 242.822C359.626 242.748 359.434 242.71 359.241 242.71H354.191C353.801 242.71 353.426 242.866 353.15 243.143C352.874 243.419 352.719 243.795 352.719 244.187V258.32C352.719 258.712 352.874 259.088 353.15 259.364C353.426 259.641 353.801 259.797 354.191 259.797H359.241C359.631 259.797 360.006 259.641 360.282 259.364C360.558 259.088 360.714 258.712 360.714 258.32V249.46H361.134V247.562H360.714V246.929H361.134Z" fill="#D0CDE1"/>
<path d="M356.927 247.773C357.391 247.773 357.768 247.395 357.768 246.929C357.768 246.463 357.391 246.085 356.927 246.085C356.462 246.085 356.085 246.463 356.085 246.929C356.085 247.395 356.462 247.773 356.927 247.773Z" fill="#3F3D56"/>
<path d="M335.835 219.419L331.54 237.122C331.54 237.122 329.87 240.95 333.687 243.342C337.505 245.734 346.094 248.844 346.094 248.844C346.094 248.844 353.73 259.37 354.684 255.064C355.638 250.758 348.958 245.256 348.958 245.256L337.266 237.84L341.8 225.4L335.835 219.419Z" fill="#A0616A"/>
<path d="M366.852 241.668C366.852 241.668 370.431 241.189 370.193 245.256C369.954 249.323 365.182 249.801 365.182 249.801C365.182 249.801 363.035 258.892 359.933 257.217C356.831 255.543 361.603 246.452 361.603 246.452L365.659 243.342L366.852 241.668Z" fill="#A0616A"/>
<path d="M343.828 217.865L347.645 209.97L340.01 212.602C340.01 212.602 335.715 214.755 335.477 219.778C335.238 224.802 340.965 227.434 340.965 227.434C340.965 227.434 341.919 234.61 341.442 235.567C340.965 236.524 341.442 240.352 341.442 240.352C341.442 240.352 350.628 237.84 355.161 240.95C359.695 244.06 363.393 242.265 363.393 242.265C363.393 242.265 363.154 236.285 365.063 235.328C366.972 234.371 368.642 229.826 366.972 226.955C366.972 226.955 370.789 227.434 370.551 223.845C370.312 220.257 368.403 217.147 365.302 215.711C362.2 214.276 361.857 214.047 361.857 214.047L366.256 222.171V224.324C366.256 224.324 358.468 219.34 350.764 218.924C348.25 218.809 345.782 219.624 343.828 221.214L343.828 221.214V217.865Z" fill="#2F2E41"/>
</g>
<defs>
<clipPath id="clip0">
<rect width="432" height="335" fill="white"/>
</clipPath>
</defs>
</svg>
